<svg xmlns="http://www.w3.org/2000/svg" width="1150" height="300" viewBox="0 0 1150 300">
  <g id="Group_692" data-name="Group 692" transform="translate(12400 -12579)">
    <text id="Footy_Quiz" data-name="Footy Quiz" transform="translate(-12105 12804)" fill="#fff" font-size="250" font-family="BebasNeue-Regular, Bebas Neue"><tspan x="0" y="0">Footy Quiz</tspan></text>
    <g id="Group_691" data-name="Group 691" transform="translate(-465 -422)">
      <g id="Group_690" data-name="Group 690" transform="translate(-14359.158 11332.578)">
        <g id="Group_688" data-name="Group 688" transform="translate(2426.522 1706.359)">
          <path id="Path_650" data-name="Path 650" d="M2647.988,1795.673l.125-.215-.125-.6a111.79,111.79,0,0,0-86.883-86.714c-.6-.125-1.214-.232-1.821-.347-.938-.18-1.88-.355-2.827-.508-1.075-.176-2.157-.332-3.243-.48-.407-.053-.815-.106-1.224-.157a112.072,112.072,0,1,0,59.292,195.987l.026.044,1.47-1.309c.179-.16.347-.325.522-.486.16-.144.314-.3.475-.439q1.738-1.588,3.407-3.248c.114-.115.227-.228.341-.344q1.777-1.781,3.472-3.641l.088-.094a112.627,112.627,0,0,0,26.9-52.421l.125-.6-.108-.185a112.19,112.19,0,0,0-.018-44.246Zm-1,22.17a109.239,109.239,0,0,1-1.471,17.767l-10.292-17.827,10.274-17.8A109.2,109.2,0,0,1,2646.99,1817.843Zm-34.9,79.78-12.258-21.233h-45.249l-22.623,39.186,6.333,10.978a108.709,108.709,0,0,1-88.555-45.8h13.529l22.623-39.186-22.623-39.191h-32.545a108.367,108.367,0,0,1,59.362-82.049l4.935-2.054,23.983-7.5,24.9-1.6c2.819.14,5.607.4,8.371.755.375.046.754.09,1.128.143.951.133,1.895.287,2.838.443s1.855.317,2.776.495c.547.106,1.092.213,1.635.326a109.187,109.187,0,0,1,83.942,83.8l-13.07,22.646,13.092,22.679A108.836,108.836,0,0,1,2612.092,1897.624Zm-182.127-92.032h31.451l20.771,35.98-20.771,35.976h-14.26a108.2,108.2,0,0,1-17.9-59.7A109.634,109.634,0,0,1,2429.965,1805.592Zm112.07,121.019-6.368-11.034,20.771-35.975h41.543l11.668,20.21A108.375,108.375,0,0,1,2542.035,1926.611Z" transform="translate(-2426.046 -1705.767)" fill="#fff"/>
          <path id="Path_651" data-name="Path 651" d="M2486.318,1773.042l-2.028,45.393,38.294,24.455,40.326-20.936,2.03-45.392-38.3-24.456Zm73.469,46.916-37.037,19.23-35.17-22.46,1.863-41.691,37.036-19.228,35.173,22.461Z" transform="translate(-2411.341 -1694.068)" fill="#fff"/>
          <path id="Path_652" data-name="Path 652" d="M2609.052,1768.151l-7.969,6.679-39.2-14.3-7.226-41.1,2.381-2h-1.943v-2.56l-3.921,3.286,7.869,44.752,42.687,15.564,7.328-6.142Z" transform="translate(-2394.455 -1703.467)" fill="#fff"/>
          <path id="Path_653" data-name="Path 653" d="M2513.222,1709.728l4.693,10.8-25.427,33.089-41.371-5.474-1.188-2.872-.584,1.854-2.441-.771-.132,4.923,47.133,5.763,27.684-36.028-4.887-11.838Z" transform="translate(-2420.813 -1704.905)" fill="#fff"/>
        </g>
        <path id="Path_654" data-name="Path 654" d="M2538.759,1703.422a114.6,114.6,0,1,0,114.6,114.6A114.732,114.732,0,0,0,2538.759,1703.422Zm0,222.941A108.339,108.339,0,1,1,2647.1,1818.023,108.463,108.463,0,0,1,2538.759,1926.362Z" transform="translate(0 0)" fill="#fff"/>
      </g>
      <path id="Path_655" data-name="Path 655" d="M-11817.642,13099.522l-38.295,19.812-1.8,43.778,36.857,22.336,38.1-19.724,1.966-43.156Z" fill="#fff"/>
      <path id="Path_656" data-name="Path 656" d="M-11905.678,13083.537l45.642,5.555,26.046-34.394-5.316-12.56-26.566,6.438s-13.645,7.514-14.527,8.111-11.887,9.694-14.027,11.393-9.266,9.082-9.582,9.941S-11905.678,13083.537-11905.678,13083.537Z" fill="#fff"/>
      <path id="Path_657" data-name="Path 657" d="M-11771.159,13052.372l-3.245,2.108,8.281,43.234,39.341,14.338,7.065-4.359s.625-2.788,0-3.595-13.969-21.479-13.969-21.479l-21.911-22.523Z" fill="#fff"/>
      <path id="Path_658" data-name="Path 658" d="M-11713.393,13130.057l-11.053,20.306,11.053,21.194,4.352-7.479-2.035-28.856Z" fill="#fff"/>
      <path id="Path_659" data-name="Path 659" d="M-11802.962,13210.8l-21.516,37.642,5.781,11.645h5.727l30.759-5.156,17.988-9.033,16.037-10.658v-3.637l-12-20.8Z" fill="#fff"/>
      <path id="Path_660" data-name="Path 660" d="M-11911.646,13212.531h15.729l21.673-37.894-22.621-37.679h-32.317l-2.145,14.692,5.946,33.508Z" fill="#fff"/>
    </g>
  </g>
</svg>
